<?xml version="1.0" encoding="utf-8"?>
<!-- Generator: Adobe Illustrator 18.1.1, SVG Export Plug-In . SVG Version: 6.00 Build 0)  -->
<svg version="1.1" id="Layer_1" xmlns="http://www.w3.org/2000/svg" xmlns:xlink="http://www.w3.org/1999/xlink" x="0px" y="0px"
	 viewBox="579 38.6 762 898" enable-background="new 579 38.6 762 898" xml:space="preserve">
<g display="none">
	<path display="inline" d="M1467.8,839.2c0,111.2-90.1,202.2-202.2,202.2c-111.2,0-202.2-91-202.2-202.2c0-37.7,11-73.5,29.4-103.9
		L958.6,631.5L824.4,734.4c18.4,30.3,29.4,66.2,29.4,103.9c0,111.2-90.1,202.2-202.2,202.2s-202.2-91-202.2-202.2
		s90.1-202.2,202.2-202.2c44.1,0,84.6,13.8,118.6,38.6l148-114V438.4c-91.9-18.4-161.8-100.2-161.8-198.5
		c0-112.1,90.1-202.2,202.2-202.2s202.2,90.1,202.2,202.2c0,97.4-69.9,179.2-161.8,198.5v122.2L1148,675.6
		c33.1-23.9,74.5-38.6,118.6-38.6C1377.8,637,1467.8,728,1467.8,839.2z M773.9,839.2c0-68-54.2-122.2-122.2-122.2
		s-122.2,54.2-122.2,122.2s54.2,122.2,122.2,122.2S773.9,906.3,773.9,839.2z M958.6,363.1c68,0,122.2-54.2,122.2-122.2
		s-54.2-122.2-122.2-122.2s-122.2,54.2-122.2,122.2S890.6,363.1,958.6,363.1z M1388.8,839.2c0-68-54.2-122.2-122.2-122.2
		c-68,0-123.2,54.2-123.2,122.2s54.2,122.2,122.2,122.2C1333.6,961.4,1388.8,906.3,1388.8,839.2z"/>
</g>
<g display="none">
	<path display="inline" d="M1460.5,443v323.5c0,57.9-46.9,104.8-104.8,104.8h-40.4v-80.9h40.4c12.9,0,23.9-11,23.9-23.9V443
		c0-12.9-11-23.9-23.9-23.9H562.5c-12.9,0-23.9,11-23.9,23.9v323.5c0,12.9,11,23.9,23.9,23.9h40.4v80.9h-40.4
		c-57.9,0-104.8-46.9-104.8-104.8V443c0-57.9,46.9-104.8,104.8-104.8h104.8V94.7H1250v242.7h104.8
		C1413.6,337.3,1460.5,384.2,1460.5,443z M667.3,628.7H1250v355.7H667.3V628.7z M748.1,337.3h421V175.6h-421V337.3z M748.1,903.5
		h421V709.6h-421V903.5z M1314.3,564.4h-80.9v-80.9h80.9V564.4z"/>
</g>
<path d="M1191.2,177.4h-23.9V95.6c0-31.3-25.7-57-57-57h-16.5c-31.3,0-57,25.7-57,57v81.8H881.4V95.6c0-31.3-25.7-57-57-57h-16.5
	c-15.6,0-29.4,5.5-40.4,16.5c-11,11-16.5,24.8-16.5,40.4v81.8h-24.8c-80.9,0-147.1,66.2-147.1,147.1v465.1
	c0,80.9,66.2,147.1,147.1,147.1h465.1c80.9,0,147.1-65.3,147.1-147.1V324.5C1338.2,243.6,1272.1,177.4,1191.2,177.4z M652.5,409.9
	v-85.5c0-40.4,33.1-73.5,73.5-73.5h24.8V307c0,31.3,25.7,57,57,57h16.5c31.3,0,57-25.7,57-57v-56.1h155.3V307c0,31.3,25.7,57,57,57
	h16.5c15.6,0,29.4-5.5,40.4-16.5s16.5-24.8,16.5-40.4v-56.1h23.9c40.4,0,73.5,33.1,73.5,73.5v85.5H652.5z"/>
<g>
	<path fill="#FFFFFF" d="M871,715.9c0-32.7,19.6-55.9,51.5-69.4l-0.4-1.2c-28.7-13.6-41.1-35.9-41.1-58.3c0-41.1,34.7-69,80.2-69
		c50.3,0,75.4,31.5,75.4,63.8c0,21.9-10.8,45.5-42.7,60.7v1.2c32.3,12.8,52.3,35.5,52.3,67c0,45.1-38.7,75.4-88.2,75.4
		C903.8,786.2,871,753.9,871,715.9z M1010.7,714.3c0-31.5-21.9-46.7-57.1-56.7c-30.3,8.8-46.7,28.7-46.7,53.5
		c-1.2,26.3,18.8,49.5,51.9,49.5C990.3,760.6,1010.7,741.1,1010.7,714.3z M914.1,584.7c0,25.9,19.6,39.9,49.5,47.9
		c22.3-7.6,39.5-23.5,39.5-47.1c0-20.7-12.4-42.3-43.9-42.3C930.1,543.2,914.1,562.3,914.1,584.7z"/>
</g>
</svg>
